<?xml version="1.0" standalone="no"?>
<!DOCTYPE svg PUBLIC "-//W3C//DTD SVG 20010904//EN"
 "http://www.w3.org/TR/2001/REC-SVG-20010904/DTD/svg10.dtd">
<svg version="1.0" xmlns="http://www.w3.org/2000/svg"
 width="300.000000pt" height="300.000000pt" viewBox="0 0 300.000000 300.000000"
 preserveAspectRatio="xMidYMid meet">
<metadata>
Created by potrace 1.11, written by Peter Selinger 2001-2013
</metadata>
<g transform="translate(0.000000,300.000000) scale(0.100000,-0.100000)"
fill="#000000" stroke="none">
<path d="M1305 2471 c-138 -62 -137 -225 1 -407 119 -156 394 -418 568 -540
32 -22 14 -24 -50 -5 -66 20 -133 58 -181 104 -18 17 -33 28 -33 23 0 -4 20
-42 45 -85 90 -156 177 -352 191 -431 7 -41 17 -185 20 -318 l7 -244 24 -9
c33 -12 93 -11 132 2 30 10 32 15 27 43 -26 141 -32 314 -13 340 12 16 13 16
29 -1 28 -31 44 -121 63 -345 6 -73 8 -77 37 -89 64 -26 198 0 185 35 -14 35
-18 199 -7 276 24 178 98 263 204 236 100 -25 166 -188 166 -411 l0 -74 56
-17 c80 -23 170 -3 178 40 9 43 29 395 29 482 -1 147 -46 326 -109 430 -58 97
-185 214 -292 268 l-32 17 34 -46 c41 -53 50 -92 44 -185 -8 -104 -60 -203
-162 -306 -101 -101 -186 -146 -289 -152 -93 -6 -150 12 -204 63 -33 32 -43
49 -43 73 0 17 5 34 10 37 6 4 10 -6 10 -23 0 -57 55 -103 149 -123 56 -12
139 4 211 41 57 29 167 135 212 205 103 159 98 303 -14 400 -95 81 -184 113
-358 126 -388 29 -676 127 -782 267 -41 54 -68 110 -68 142 0 31 51 77 93 85
30 6 37 12 37 30 0 12 7 28 15 35 39 33 -74 41 -140 11z m873 -742 c2 -14 -4
-31 -13 -39 -13 -11 -19 -10 -35 5 -23 21 -25 36 -8 53 21 21 53 10 56 -19z"/>
<path d="M1515 2472 c-22 -9 -46 -21 -53 -25 -19 -13 -14 -48 9 -74 22 -22 22
-22 49 -3 53 38 105 35 150 -10 25 -25 26 -79 3 -127 -9 -19 -42 -63 -75 -96
-32 -34 -58 -62 -58 -63 0 -5 101 -44 114 -44 8 0 35 31 60 69 92 137 106 247
44 326 -47 60 -160 82 -243 47z"/>
<path d="M1285 1973 c-70 -25 -216 -52 -345 -63 -217 -19 -258 -27 -335 -64
-134 -63 -205 -150 -204 -251 0 -144 136 -343 289 -424 53 -29 78 -35 142 -39
69 -4 83 -2 134 23 57 28 83 63 85 117 0 21 2 20 11 -6 20 -54 -37 -126 -121
-155 -19 -6 -67 -11 -106 -11 -65 0 -81 4 -156 42 -102 50 -196 141 -252 242
-84 154 -89 264 -15 359 16 20 26 37 22 37 -15 0 -112 -62 -160 -102 -95 -80
-168 -180 -199 -273 -56 -169 -72 -306 -56 -480 7 -66 15 -171 18 -233 l6
-113 31 -17 c40 -21 131 -20 173 2 l33 17 0 100 c0 232 78 379 201 379 93 0
152 -92 169 -263 6 -59 9 -111 6 -115 -2 -4 -6 -40 -7 -80 -4 -70 -2 -74 21
-88 34 -18 124 -18 160 1 27 14 30 20 30 68 1 67 26 271 40 318 11 40 33 64
49 55 24 -15 22 -141 -5 -342 -6 -40 -4 -42 27 -53 41 -14 101 -14 134 1 l25
11 0 193 c0 257 13 378 51 474 28 70 136 283 190 375 l23 40 -45 -40 c-26 -22
-67 -51 -93 -64 -56 -28 -146 -53 -146 -41 0 5 21 24 47 41 55 39 234 191 282
243 l35 36 -64 67 c-35 38 -68 73 -74 79 -8 9 -21 8 -51 -3z m-405 -233 c7
-13 5 -24 -9 -41 -19 -23 -19 -24 -40 -5 -25 23 -26 34 -5 57 18 20 40 15 54
-11z"/>
<path d="M423 1011 c-62 -38 -99 -129 -110 -269 -7 -94 -3 -102 55 -102 63 0
70 10 71 106 1 97 23 203 51 251 l19 33 -27 0 c-15 0 -41 -9 -59 -19z"/>
<path d="M2509 992 c27 -53 51 -177 51 -266 0 -81 4 -86 65 -86 56 0 65 8 65
56 0 67 -28 192 -56 246 -27 53 -73 88 -117 88 l-27 0 19 -38z"/>
</g>
</svg>
